<svg xmlns="http://www.w3.org/2000/svg" width="32" height="32"><path fill="#E63323" d="M8.5 26.85c1.04.01 1.88-.83 1.89-1.86s-.83-1.88-1.86-1.89c-.51 0-.99.2-1.35.56-.73.74-.72 1.92.02 2.65.34.35.81.54 1.3.54zM13.13 2.5H3.75c-1-.01-1.96.38-2.65 1.1C.38 4.29-.01 5.25 0 6.25v19.5c-.01 1 .38 1.96 1.1 2.65.69.72 1.65 1.11 2.65 1.1h9.38c2.07 0 3.75-1.68 3.75-3.75V6.25c.02-1-.38-1.96-1.1-2.65-.7-.72-1.66-1.12-2.65-1.1zM15 25.75a1.91 1.91 0 0 1-1.88 1.88H3.75c-.5 0-.97-.2-1.32-.56-.36-.34-.56-.82-.56-1.32V22.5H15v3.25zm0-5.13H1.88V9.06H15v11.56zm0-13.43H1.88v-.94c0-.5.2-.97.56-1.32.34-.36.82-.56 1.32-.56h9.38c1.03.01 1.86.85 1.88 1.88v.94z"/></svg>