<svg xmlns="http://www.w3.org/2000/svg" width="32" height="32"><g fill="#E63323"><path d="M11.188 2.32L-.002 7.3v7.46c0 1.71.29 3.4.85 5.01.54 1.6 1.33 3.1 2.34 4.45a16.05 16.05 0 0 0 3.54 3.44c1.34.95 2.86 1.64 4.46 2.02 1.6-.38 3.12-1.07 4.46-2.02 1.35-.95 2.55-2.11 3.54-3.44a16.31 16.31 0 0 0 2.35-4.44c.56-1.61.85-3.31.85-5.01V7.31l-11.2-4.99zm8.71 12.7c0 1.36-.25 2.71-.71 3.99-.46 1.3-1.11 2.52-1.91 3.64-.77 1.08-1.71 2.05-2.77 2.86-.99.77-2.12 1.33-3.32 1.66a9.428 9.428 0 0 1-3.32-1.66c-1.06-.81-1.99-1.77-2.77-2.85-.8-1.12-1.45-2.34-1.91-3.64-.47-1.28-.71-2.64-.71-4V8.91l8.71-3.88 8.71 3.88v6.11z"/><path d="M9.708 19.87l-4.28-4.28 1.28-1.28 3 2.98 6.41-5.97 1.28 1.28-7.69 7.27z"/></g></svg>