<svg xmlns="http://www.w3.org/2000/svg" width="32" height="32"><path fill="#E63323" d="M1.15 16c.31.01.6-.1.83-.31.22-.21.33-.51.32-.81v-2.29c-.02-.91.33-1.79.97-2.43a3.32 3.32 0 0 1 2.44-.99h13.2l-2.64 2.61c-.43.45-.43 1.15 0 1.6.11.11.23.2.37.27.14.06.28.08.43.08.15 0 .31-.02.45-.08.13-.06.25-.15.35-.27l4.56-4.53c.05-.07.1-.13.15-.19.04-.04.06-.1.07-.16.07-.13.11-.28.11-.43 0-.17-.04-.33-.11-.48a.724.724 0 0 1-.11-.19.355.355 0 0 0-.11-.16l-4.56-4.56c-.42-.44-1.11-.46-1.55-.05-.02.01-.03.03-.05.05-.21.21-.32.5-.32.8 0 .3.11.59.32.8l2.64 2.61H5.71c-.77.01-1.53.17-2.24.47a5.474 5.474 0 0 0-3.02 3.01c-.3.7-.45 1.46-.45 2.22v2.29c-.01.3.1.6.32.81.22.21.52.32.83.31zm20.48 0c-.61-.03-1.12.44-1.15 1.05v2.37c.05 1.84-1.4 3.36-3.24 3.41H3.87l2.64-2.61c.44-.44.44-1.16 0-1.6s-1.16-.44-1.6 0L.35 23.18c-.05.05-.1.11-.15.17-.04.05-.06.11-.07.17-.07.12-.11.26-.11.4 0 .17.04.35.11.51.05.05.09.11.11.17s.06.13.11.17l4.56 4.56c.1.1.22.18.35.24.14.06.3.08.45.08.15 0 .29-.02.43-.08s.26-.14.37-.24c.43-.45.43-1.15 0-1.6l-2.64-2.61h13.2c.77.01 1.53-.15 2.24-.45a5.426 5.426 0 0 0 3.01-3.01c.3-.71.46-1.47.45-2.24v-2.27c.03-.61-.44-1.12-1.05-1.15h-.09z"/></svg>